# This file uses centimeters as units for non-parametric coordinates.

mtllib boxes.mtl
g default
v -1.530000 1.173614 0.500000
v 1.530000 1.173614 0.500000
v -1.530000 2.173614 0.500000
v 1.530000 2.173614 0.500000
v -1.530000 2.173614 -0.500000
v 1.530000 2.173614 -0.500000
v -1.530000 1.173614 -0.500000
v 1.530000 1.173614 -0.500000
vt 0.251244 0.330314
vt 0.768755 0.329579
vt 0.769000 0.495343
vt 0.251489 0.496078
vt 0.769245 0.661107
vt 0.251734 0.661841
vt 0.769490 0.826870
vt 0.251979 0.827605
vt 0.250999 0.164550
vt 0.768510 0.163815
vt 0.938121 0.495103
vt 0.938366 0.660866
vt 0.082613 0.662081
vt 0.082368 0.496318
vn 0.000000 0.000000 1.000000
vn 0.000000 0.000000 1.000000
vn 0.000000 0.000000 1.000000
vn 0.000000 0.000000 1.000000
vn 0.000000 1.000000 0.000000
vn 0.000000 1.000000 0.000000
vn 0.000000 1.000000 0.000000
vn 0.000000 1.000000 0.000000
vn 0.000000 0.000000 -1.000000
vn 0.000000 0.000000 -1.000000
vn 0.000000 0.000000 -1.000000
vn 0.000000 0.000000 -1.000000
vn 0.000000 -1.000000 0.000000
vn 0.000000 -1.000000 0.000000
vn 0.000000 -1.000000 0.000000
vn 0.000000 -1.000000 0.000000
vn 1.000000 0.000000 0.000000
vn 1.000000 0.000000 0.000000
vn 1.000000 0.000000 0.000000
vn 1.000000 0.000000 0.000000
vn -1.000000 0.000000 0.000000
vn -1.000000 0.000000 0.000000
vn -1.000000 0.000000 0.000000
vn -1.000000 0.000000 0.000000
s off
g cube_text2_pCube1
usemtl lambert2SG
f 1/1/1 2/2/2 4/3/3 3/4/4
f 3/4/5 4/3/6 6/5/7 5/6/8
f 5/6/9 6/5/10 8/7/11 7/8/12
f 7/9/13 8/10/14 2/2/15 1/1/16
f 2/11/17 8/12/18 6/5/19 4/3/20
f 7/13/21 1/14/22 3/4/23 5/6/24
g default
v -1.080871 3.927302 1.060486
v 0.167937 1.133724 1.060486
v -0.167937 4.335409 1.060486
v 1.080871 1.541831 1.060486
v -0.167937 4.335409 0.060486
v 1.080871 1.541831 0.060486
v -1.080871 3.927302 0.060486
v 0.167937 1.133724 0.060486
vt 0.251244 0.330314
vt 0.768755 0.329579
vt 0.769000 0.495343
vt 0.251489 0.496078
vt 0.769245 0.661107
vt 0.251734 0.661841
vt 0.769490 0.826870
vt 0.251979 0.827605
vt 0.250999 0.164550
vt 0.768510 0.163815
vt 0.938121 0.495103
vt 0.938366 0.660866
vt 0.082613 0.662081
vt 0.082368 0.496318
vn 0.000000 0.000000 1.000000
vn 0.000000 0.000000 1.000000
vn 0.000000 0.000000 1.000000
vn 0.000000 0.000000 1.000000
vn 0.912934 0.408107 0.000000
vn 0.912934 0.408107 0.000000
vn 0.912934 0.408107 0.000000
vn 0.912934 0.408107 0.000000
vn 0.000000 0.000000 -1.000000
vn 0.000000 0.000000 -1.000000
vn 0.000000 0.000000 -1.000000
vn 0.000000 0.000000 -1.000000
vn -0.912934 -0.408107 0.000000
vn -0.912934 -0.408107 0.000000
vn -0.912934 -0.408107 0.000000
vn -0.912934 -0.408107 0.000000
vn 0.408107 -0.912934 0.000000
vn 0.408107 -0.912934 0.000000
vn 0.408107 -0.912934 0.000000
vn 0.408107 -0.912934 0.000000
vn -0.408107 0.912934 0.000000
vn -0.408107 0.912934 0.000000
vn -0.408107 0.912934 0.000000
vn -0.408107 0.912934 0.000000
s off
g cube_text2_pCube2
usemtl lambert2SG2
f 9/15/25 10/16/26 12/17/27 11/18/28
f 11/18/29 12/17/30 14/19/31 13/20/32
f 13/20/33 14/19/34 16/21/35 15/22/36
f 15/23/37 16/24/38 10/16/39 9/15/40
f 10/25/41 16/26/42 14/19/43 12/17/44
f 15/27/45 9/28/46 11/18/47 13/20/48
