{
	"asset":{
		"generator":"Khronos glTF Blender I/O v4.2.60",
		"version":"2.0"
	},
	"extensionsUsed":[
		"KHR_materials_emissive_strength"
	],
	"scene":0,
	"scenes":[
		{
			"name":"Scene",
			"nodes":[
				0,
				1,
				2,
				3,
				4,
				5,
				6,
				7,
				8,
				9,
				10
			]
		}
	],
	"nodes":[
		{
			"mesh":0,
			"name":"Cube"
		},
		{
			"camera":0,
			"name":"Camera",
			"translation":[
				0,
				5,
				10.5
			]
		},
		{
			"mesh":1,
			"name":"Cube.001",
			"rotation":[
				0,
				0,
				0.7071068286895752,
				0.7071068286895752
			],
			"translation":[
				0,
				10,
				0
			]
		},
		{
			"mesh":2,
			"name":"Cube.002",
			"rotation":[
				-0.5,
				0.4999999403953552,
				0.5,
				0.5000000596046448
			],
			"translation":[
				0,
				5,
				-5
			]
		},
		{
			"mesh":3,
			"name":"Cube.003",
			"translation":[
				-5,
				5,
				0
			]
		},
		{
			"mesh":4,
			"name":"Cube.004",
			"translation":[
				5,
				5,
				0
			]
		},
		{
			"mesh":5,
			"name":"Cube.005",
			"translation":[
				0,
				10,
				0
			]
		},
		{
			"mesh":6,
			"name":"Cube.006",
			"rotation":[
				0.7071068286895752,
				0,
				0,
				0.7071068286895752
			],
			"scale":[
				1.0173548460006714,
				1.0173548460006714,
				1.0173548460006714
			],
			"translation":[
				-0.08688914775848389,
				5.116875648498535,
				12.401787757873535
			]
		},
		{
			"mesh":7,
			"name":"Cube.001_Material.006_0",
			"rotation":[
				-1,
				0,
				0,
				4.371138828673793e-08
			],
			"translation":[
				0,
				5.772315979003906,
				5.12777042388916
			]
		},
		{
			"mesh":8,
			"name":"Cube.001_Material_0",
			"rotation":[
				-1,
				0,
				0,
				4.371138828673793e-08
			],
			"translation":[
				0,
				5.772315979003906,
				5.12777042388916
			]
		},
		{
			"mesh":9,
			"name":"Cube.001_vermelho oficial_0",
			"rotation":[
				-1,
				0,
				0,
				4.371138828673793e-08
			],
			"translation":[
				0,
				5.772315979003906,
				5.12777042388916
			]
		}
	],
	"cameras":[
		{
			"name":"Camera",
			"perspective":{
				"aspectRatio":1,
				"yfov":0.4363322854042053,
				"zfar":100,
				"znear":0.10000000149011612
			},
			"type":"perspective"
		}
	],
	"materials":[
		{
			"doubleSided":true,
			"name":"GreyMat",
			"pbrMetallicRoughness":{
				"baseColorFactor":[
					0.9800000190734863,
					0.9800000190734863,
					0.9800000190734863,
					1
				],
				"metallicFactor":0,
				"roughnessFactor":0.5
			}
		},
		{
			"doubleSided":true,
			"name":"RedMat",
			"pbrMetallicRoughness":{
				"baseColorFactor":[
					0.4307975172996521,
					0,
					0.017138464376330376,
					1
				],
				"metallicFactor":0,
				"roughnessFactor":0.5
			}
		},
		{
			"doubleSided":true,
			"name":"GreenMat",
			"pbrMetallicRoughness":{
				"baseColorFactor":[
					0.003555567469447851,
					0.4245266914367676,
					0.0034814474638551474,
					1
				],
				"metallicFactor":0,
				"roughnessFactor":0.5
			}
		},
		{
			"doubleSided":true,
			"emissiveFactor":[
				1,
				1,
				1
			],
			"extensions":{
				"KHR_materials_emissive_strength":{
					"emissiveStrength":5
				}
			},
			"name":"Emissive2",
			"pbrMetallicRoughness":{
				"metallicFactor":0,
				"roughnessFactor":0.5
			}
		},
		{
			"doubleSided":true,
			"name":"Material.006",
			"pbrMetallicRoughness":{
				"baseColorFactor":[
					0.7116212248802185,
					0.258791983127594,
					0,
					1
				],
				"roughnessFactor":0.18742914497852325
			}
		},
		{
			"doubleSided":true,
			"name":"Material",
			"pbrMetallicRoughness":{
				"baseColorFactor":[
					0.19802327454090118,
					0.009853572584688663,
					0.004244254902005196,
					1
				],
				"roughnessFactor":0.1889999955892563
			}
		},
		{
			"doubleSided":true,
			"emissiveFactor":[
				0.18683528900146484,
				1,
				1
			],
			"extensions":{
				"KHR_materials_emissive_strength":{
					"emissiveStrength":1000
				}
			},
			"name":"vermelho_oficial",
			"pbrMetallicRoughness":{
				"baseColorFactor":[
					0.0018938030116260052,
					0.013663340359926224,
					0.021282080560922623,
					1
				],
				"metallicFactor":0.8062827587127686,
				"roughnessFactor":0.9913588166236877
			}
		}
	],
	"meshes":[
		{
			"name":"Cube",
			"primitives":[
				{
					"attributes":{
						"POSITION":0,
						"NORMAL":1,
						"TEXCOORD_0":2
					},
					"indices":3,
					"material":0
				}
			]
		},
		{
			"name":"Cube.001",
			"primitives":[
				{
					"attributes":{
						"POSITION":4,
						"NORMAL":5,
						"TEXCOORD_0":6
					},
					"indices":3,
					"material":0
				}
			]
		},
		{
			"name":"Cube.002",
			"primitives":[
				{
					"attributes":{
						"POSITION":7,
						"NORMAL":8,
						"TEXCOORD_0":9
					},
					"indices":3,
					"material":0
				}
			]
		},
		{
			"name":"Cube.003",
			"primitives":[
				{
					"attributes":{
						"POSITION":10,
						"NORMAL":11,
						"TEXCOORD_0":12
					},
					"indices":3,
					"material":1
				}
			]
		},
		{
			"name":"Cube.004",
			"primitives":[
				{
					"attributes":{
						"POSITION":13,
						"NORMAL":14,
						"TEXCOORD_0":15
					},
					"indices":3,
					"material":2
				}
			]
		},
		{
			"name":"Cube.005",
			"primitives":[
				{
					"attributes":{
						"POSITION":16,
						"NORMAL":17,
						"TEXCOORD_0":18
					},
					"indices":19,
					"material":3
				}
			]
		},
		{
			"name":"Cube.006",
			"primitives":[
				{
					"attributes":{
						"POSITION":20,
						"NORMAL":21,
						"TEXCOORD_0":22
					},
					"indices":19,
					"material":3
				}
			]
		},
		{
			"name":"Cube.001_Material.006_0",
			"primitives":[
				{
					"attributes":{
						"POSITION":23,
						"NORMAL":24,
						"TEXCOORD_0":25
					},
					"indices":26,
					"material":4
				}
			]
		},
		{
			"name":"Cube.001_Material_0",
			"primitives":[
				{
					"attributes":{
						"POSITION":27,
						"NORMAL":28,
						"TEXCOORD_0":29
					},
					"indices":30,
					"material":5
				}
			]
		},
		{
			"name":"Cube.001_vermelho oficial_0",
			"primitives":[
				{
					"attributes":{
						"POSITION":31,
						"NORMAL":32,
						"TEXCOORD_0":33
					},
					"indices":34,
					"material":6
				}
			]
		}
	],
	"accessors":[
		{
			"bufferView":0,
			"componentType":5126,
			"count":24,
			"max":[
				10,
				0.009999999776482582,
				10
			],
			"min":[
				-10,
				-0.009999999776482582,
				-10
			],
			"type":"VEC3"
		},
		{
			"bufferView":1,
			"componentType":5126,
			"count":24,
			"type":"VEC3"
		},
		{
			"bufferView":2,
			"componentType":5126,
			"count":24,
			"type":"VEC2"
		},
		{
			"bufferView":3,
			"componentType":5123,
			"count":36,
			"type":"SCALAR"
		},
		{
			"bufferView":4,
			"componentType":5126,
			"count":24,
			"max":[
				0.009999999776482582,
				10,
				10
			],
			"min":[
				-0.009999999776482582,
				-10,
				-10
			],
			"type":"VEC3"
		},
		{
			"bufferView":5,
			"componentType":5126,
			"count":24,
			"type":"VEC3"
		},
		{
			"bufferView":6,
			"componentType":5126,
			"count":24,
			"type":"VEC2"
		},
		{
			"bufferView":7,
			"componentType":5126,
			"count":24,
			"max":[
				0.009999999776482582,
				10,
				10
			],
			"min":[
				-0.009999999776482582,
				-10,
				-10
			],
			"type":"VEC3"
		},
		{
			"bufferView":8,
			"componentType":5126,
			"count":24,
			"type":"VEC3"
		},
		{
			"bufferView":9,
			"componentType":5126,
			"count":24,
			"type":"VEC2"
		},
		{
			"bufferView":10,
			"componentType":5126,
			"count":24,
			"max":[
				0.009999999776482582,
				10,
				10
			],
			"min":[
				-0.009999999776482582,
				-10,
				-10
			],
			"type":"VEC3"
		},
		{
			"bufferView":11,
			"componentType":5126,
			"count":24,
			"type":"VEC3"
		},
		{
			"bufferView":12,
			"componentType":5126,
			"count":24,
			"type":"VEC2"
		},
		{
			"bufferView":13,
			"componentType":5126,
			"count":24,
			"max":[
				0.009999999776482582,
				10,
				10
			],
			"min":[
				-0.009999999776482582,
				-10,
				-10
			],
			"type":"VEC3"
		},
		{
			"bufferView":14,
			"componentType":5126,
			"count":24,
			"type":"VEC3"
		},
		{
			"bufferView":15,
			"componentType":5126,
			"count":24,
			"type":"VEC2"
		},
		{
			"bufferView":16,
			"componentType":5126,
			"count":24,
			"max":[
				1.5,
				0.15000000596046448,
				1.5
			],
			"min":[
				-1.5,
				-0.15000000596046448,
				-1.5
			],
			"type":"VEC3"
		},
		{
			"bufferView":17,
			"componentType":5126,
			"count":24,
			"type":"VEC3"
		},
		{
			"bufferView":18,
			"componentType":5126,
			"count":24,
			"type":"VEC2"
		},
		{
			"bufferView":19,
			"componentType":5123,
			"count":36,
			"type":"SCALAR"
		},
		{
			"bufferView":20,
			"componentType":5126,
			"count":24,
			"max":[
				1.5549883842468262,
				0.15549883246421814,
				1.5549883842468262
			],
			"min":[
				-1.5549883842468262,
				-0.15549883246421814,
				-1.5549883842468262
			],
			"type":"VEC3"
		},
		{
			"bufferView":21,
			"componentType":5126,
			"count":24,
			"type":"VEC3"
		},
		{
			"bufferView":22,
			"componentType":5126,
			"count":24,
			"type":"VEC2"
		},
		{
			"bufferView":23,
			"componentType":5126,
			"count":3778,
			"max":[
				0.874289870262146,
				0.6924262642860413,
				0.7642179131507874
			],
			"min":[
				-0.874289870262146,
				-1.3308547735214233,
				-0.5551705360412598
			],
			"type":"VEC3"
		},
		{
			"bufferView":24,
			"componentType":5126,
			"count":3778,
			"type":"VEC3"
		},
		{
			"bufferView":25,
			"componentType":5126,
			"count":3778,
			"type":"VEC2"
		},
		{
			"bufferView":26,
			"componentType":5123,
			"count":14736,
			"type":"SCALAR"
		},
		{
			"bufferView":27,
			"componentType":5126,
			"count":9995,
			"max":[
				3.1877217292785645,
				4.069518566131592,
				2.4816431999206543
			],
			"min":[
				-3.1877217292785645,
				-1.6040027141571045,
				-0.8097807765007019
			],
			"type":"VEC3"
		},
		{
			"bufferView":28,
			"componentType":5126,
			"count":9995,
			"type":"VEC3"
		},
		{
			"bufferView":29,
			"componentType":5126,
			"count":9995,
			"type":"VEC2"
		},
		{
			"bufferView":30,
			"componentType":5123,
			"count":52644,
			"type":"SCALAR"
		},
		{
			"bufferView":31,
			"componentType":5126,
			"count":3283,
			"max":[
				2.449538230895996,
				3.987705707550049,
				2.4386708736419678
			],
			"min":[
				-2.449538469314575,
				-0.37908267974853516,
				-0.7989331483840942
			],
			"type":"VEC3"
		},
		{
			"bufferView":32,
			"componentType":5126,
			"count":3283,
			"type":"VEC3"
		},
		{
			"bufferView":33,
			"componentType":5126,
			"count":3283,
			"type":"VEC2"
		},
		{
			"bufferView":34,
			"componentType":5123,
			"count":17088,
			"type":"SCALAR"
		}
	],
	"bufferViews":[
		{
			"buffer":0,
			"byteLength":288,
			"byteOffset":0,
			"target":34962
		},
		{
			"buffer":0,
			"byteLength":288,
			"byteOffset":288,
			"target":34962
		},
		{
			"buffer":0,
			"byteLength":192,
			"byteOffset":576,
			"target":34962
		},
		{
			"buffer":0,
			"byteLength":72,
			"byteOffset":768,
			"target":34963
		},
		{
			"buffer":0,
			"byteLength":288,
			"byteOffset":840,
			"target":34962
		},
		{
			"buffer":0,
			"byteLength":288,
			"byteOffset":1128,
			"target":34962
		},
		{
			"buffer":0,
			"byteLength":192,
			"byteOffset":1416,
			"target":34962
		},
		{
			"buffer":0,
			"byteLength":288,
			"byteOffset":1608,
			"target":34962
		},
		{
			"buffer":0,
			"byteLength":288,
			"byteOffset":1896,
			"target":34962
		},
		{
			"buffer":0,
			"byteLength":192,
			"byteOffset":2184,
			"target":34962
		},
		{
			"buffer":0,
			"byteLength":288,
			"byteOffset":2376,
			"target":34962
		},
		{
			"buffer":0,
			"byteLength":288,
			"byteOffset":2664,
			"target":34962
		},
		{
			"buffer":0,
			"byteLength":192,
			"byteOffset":2952,
			"target":34962
		},
		{
			"buffer":0,
			"byteLength":288,
			"byteOffset":3144,
			"target":34962
		},
		{
			"buffer":0,
			"byteLength":288,
			"byteOffset":3432,
			"target":34962
		},
		{
			"buffer":0,
			"byteLength":192,
			"byteOffset":3720,
			"target":34962
		},
		{
			"buffer":0,
			"byteLength":288,
			"byteOffset":3912,
			"target":34962
		},
		{
			"buffer":0,
			"byteLength":288,
			"byteOffset":4200,
			"target":34962
		},
		{
			"buffer":0,
			"byteLength":192,
			"byteOffset":4488,
			"target":34962
		},
		{
			"buffer":0,
			"byteLength":72,
			"byteOffset":4680,
			"target":34963
		},
		{
			"buffer":0,
			"byteLength":288,
			"byteOffset":4752,
			"target":34962
		},
		{
			"buffer":0,
			"byteLength":288,
			"byteOffset":5040,
			"target":34962
		},
		{
			"buffer":0,
			"byteLength":192,
			"byteOffset":5328,
			"target":34962
		},
		{
			"buffer":0,
			"byteLength":45336,
			"byteOffset":5520,
			"target":34962
		},
		{
			"buffer":0,
			"byteLength":45336,
			"byteOffset":50856,
			"target":34962
		},
		{
			"buffer":0,
			"byteLength":30224,
			"byteOffset":96192,
			"target":34962
		},
		{
			"buffer":0,
			"byteLength":29472,
			"byteOffset":126416,
			"target":34963
		},
		{
			"buffer":0,
			"byteLength":119940,
			"byteOffset":155888,
			"target":34962
		},
		{
			"buffer":0,
			"byteLength":119940,
			"byteOffset":275828,
			"target":34962
		},
		{
			"buffer":0,
			"byteLength":79960,
			"byteOffset":395768,
			"target":34962
		},
		{
			"buffer":0,
			"byteLength":105288,
			"byteOffset":475728,
			"target":34963
		},
		{
			"buffer":0,
			"byteLength":39396,
			"byteOffset":581016,
			"target":34962
		},
		{
			"buffer":0,
			"byteLength":39396,
			"byteOffset":620412,
			"target":34962
		},
		{
			"buffer":0,
			"byteLength":26264,
			"byteOffset":659808,
			"target":34962
		},
		{
			"buffer":0,
			"byteLength":34176,
			"byteOffset":686072,
			"target":34963
		}
	],
	"buffers":[
		{
			"byteLength":720248,
			"uri":"TestGltf2.bin"
		}
	]
}
