{"asset":{"version":"2.0","generator":"babylon.js glTF exporter for Autodesk MAYA 2022.5 v20240312.5"},"scene":0,"scenes":[{"nodes":[0]}],"nodes":[{"children":[1,2,3,4,5],"scale":[60.0,60.0,60.0],"name":"root"},{"mesh":0,"name":"BackWall"},{"mesh":1,"name":"LeftWall"},{"mesh":2,"name":"RightWall"},{"mesh":3,"name":"TopWall"},{"mesh":4,"name":"BotWall"}],"meshes":[{"primitives":[{"attributes":{"POSITION":1,"TANGENT":2,"NORMAL":3,"TEXCOORD_0":4},"indices":0,"material":0}],"name":"BackWall"},{"primitives":[{"attributes":{"POSITION":6,"TANGENT":7,"NORMAL":8,"TEXCOORD_0":9},"indices":5,"material":1}],"name":"LeftWall"},{"primitives":[{"attributes":{"POSITION":11,"TANGENT":12,"NORMAL":13,"TEXCOORD_0":14},"indices":10,"material":2}],"name":"RightWall"},{"primitives":[{"attributes":{"POSITION":16,"TANGENT":17,"NORMAL":18,"TEXCOORD_0":19},"indices":15,"material":3}],"name":"TopWall"},{"primitives":[{"attributes":{"POSITION":21,"TANGENT":22,"NORMAL":23,"TEXCOORD_0":24},"indices":20,"material":3}],"name":"BotWall"}],"accessors":[{"bufferView":0,"componentType":5123,"count":6,"type":"SCALAR","name":"accessorIndices"},{"bufferView":1,"componentType":5126,"count":6,"max":[0.0749999955,0.149999991,-0.0749999955],"min":[-0.0749999955,0.0,-0.0749999955],"type":"VEC3","name":"accessorPositions"},{"bufferView":2,"componentType":5126,"count":6,"type":"VEC4","name":"accessorTangents"},{"bufferView":1,"byteOffset":72,"componentType":5126,"count":6,"type":"VEC3","name":"accessorNormals"},{"bufferView":3,"componentType":5126,"count":6,"type":"VEC2","name":"accessorUVs"},{"bufferView":0,"byteOffset":12,"componentType":5123,"count":6,"type":"SCALAR","name":"accessorIndices"},{"bufferView":1,"byteOffset":144,"componentType":5126,"count":6,"max":[-0.0749999955,0.149999991,0.0749999955],"min":[-0.0749999955,0.0,-0.0749999955],"type":"VEC3","name":"accessorPositions"},{"bufferView":2,"byteOffset":96,"componentType":5126,"count":6,"type":"VEC4","name":"accessorTangents"},{"bufferView":1,"byteOffset":216,"componentType":5126,"count":6,"type":"VEC3","name":"accessorNormals"},{"bufferView":3,"byteOffset":48,"componentType":5126,"count":6,"type":"VEC2","name":"accessorUVs"},{"bufferView":0,"byteOffset":24,"componentType":5123,"count":6,"type":"SCALAR","name":"accessorIndices"},{"bufferView":1,"byteOffset":288,"componentType":5126,"count":6,"max":[0.0749999955,0.149999991,0.0749999955],"min":[0.0749999955,0.0,-0.0749999955],"type":"VEC3","name":"accessorPositions"},{"bufferView":2,"byteOffset":192,"componentType":5126,"count":6,"type":"VEC4","name":"accessorTangents"},{"bufferView":1,"byteOffset":360,"componentType":5126,"count":6,"type":"VEC3","name":"accessorNormals"},{"bufferView":3,"byteOffset":96,"componentType":5126,"count":6,"type":"VEC2","name":"accessorUVs"},{"bufferView":0,"byteOffset":36,"componentType":5123,"count":6,"type":"SCALAR","name":"accessorIndices"},{"bufferView":1,"byteOffset":432,"componentType":5126,"count":6,"max":[0.0749999955,0.149999991,0.0749999955],"min":[-0.0749999955,0.149999991,-0.0749999955],"type":"VEC3","name":"accessorPositions"},{"bufferView":2,"byteOffset":288,"componentType":5126,"count":6,"type":"VEC4","name":"accessorTangents"},{"bufferView":1,"byteOffset":504,"componentType":5126,"count":6,"type":"VEC3","name":"accessorNormals"},{"bufferView":3,"byteOffset":144,"componentType":5126,"count":6,"type":"VEC2","name":"accessorUVs"},{"bufferView":0,"byteOffset":48,"componentType":5123,"count":6,"type":"SCALAR","name":"accessorIndices"},{"bufferView":1,"byteOffset":576,"componentType":5126,"count":6,"max":[0.0749999955,0.0,0.0749999955],"min":[-0.0749999955,0.0,-0.0749999955],"type":"VEC3","name":"accessorPositions"},{"bufferView":2,"byteOffset":384,"componentType":5126,"count":6,"type":"VEC4","name":"accessorTangents"},{"bufferView":1,"byteOffset":648,"componentType":5126,"count":6,"type":"VEC3","name":"accessorNormals"},{"bufferView":3,"byteOffset":192,"componentType":5126,"count":6,"type":"VEC2","name":"accessorUVs"}],"bufferViews":[{"buffer":0,"byteLength":60,"name":"bufferViewScalar"},{"buffer":0,"byteOffset":60,"byteLength":720,"byteStride":12,"name":"bufferViewFloatVec3"},{"buffer":0,"byteOffset":780,"byteLength":480,"byteStride":16,"name":"bufferViewFloatVec4"},{"buffer":0,"byteOffset":1260,"byteLength":240,"byteStride":8,"name":"bufferViewFloatVec2"}],"buffers":[{"uri":"Cornell.bin","byteLength":1500}],"materials":[{"pbrMetallicRoughness":{"baseColorFactor":[0.5,0.5,0.5,1.0],"metallicFactor":0.0,"roughnessFactor":0.450053632},"name":"BackWallMat"},{"pbrMetallicRoughness":{"baseColorFactor":[0.7339,0.0836,0.0836,1.0],"metallicFactor":0.0,"roughnessFactor":0.450053632},"name":"LeftWallMat"},{"pbrMetallicRoughness":{"baseColorFactor":[0.2173,0.5386,0.15,1.0],"metallicFactor":0.0,"roughnessFactor":0.450053632},"name":"RightWallMat"},{"pbrMetallicRoughness":{"baseColorFactor":[0.5,0.5,0.5,1.0],"metallicFactor":0.0,"roughnessFactor":0.450053632},"name":"TopWallMat"}]}