{"asset":{"version":"2.0","generator":"babylon.js glTF exporter for Autodesk MAYA 2022.5 v20240312.5"},"scene":0,"scenes":[{"nodes":[0]}],"nodes":[{"children":[1,2,3,4,5,6,7,8,9],"scale":[60.0,60.0,60.0],"name":"root"},{"mesh":0,"name":"BackWall"},{"mesh":1,"name":"LeftWall"},{"mesh":2,"name":"RightWall"},{"mesh":3,"name":"TopWall"},{"mesh":4,"name":"BotWall"},{"mesh":5,"name":"FrontWall"},{"mesh":6,"translation":[-0.00320100063,-0.045833163,-0.0518333763],"scale":[1.40568531,1.40568531,1.40568531],"name":"pSphere2"},{"mesh":7,"translation":[-0.0526540466,0.0337141864,-0.0518333763],"scale":[0.7629858,0.7629858,0.7629858],"name":"pSphere3"},{"mesh":8,"translation":[0.0472626537,-0.0650491342,-0.0128737586],"scale":[1.29829443,1.29829443,1.29829443],"name":"pSphere4"}],"meshes":[{"primitives":[{"attributes":{"POSITION":1,"TANGENT":2,"NORMAL":3,"TEXCOORD_0":4},"indices":0,"material":0}],"name":"BackWall"},{"primitives":[{"attributes":{"POSITION":6,"TANGENT":7,"NORMAL":8,"TEXCOORD_0":9},"indices":5,"material":1}],"name":"LeftWall"},{"primitives":[{"attributes":{"POSITION":11,"TANGENT":12,"NORMAL":13,"TEXCOORD_0":14},"indices":10,"material":2}],"name":"RightWall"},{"primitives":[{"attributes":{"POSITION":16,"TANGENT":17,"NORMAL":18,"TEXCOORD_0":19},"indices":15,"material":3}],"name":"TopWall"},{"primitives":[{"attributes":{"POSITION":21,"TANGENT":22,"NORMAL":23,"TEXCOORD_0":24},"indices":20,"material":3}],"name":"BotWall"},{"primitives":[{"attributes":{"POSITION":26,"TANGENT":27,"NORMAL":28,"TEXCOORD_0":29},"indices":25,"material":0}],"name":"FrontWall"},{"primitives":[{"attributes":{"POSITION":31,"TANGENT":32,"NORMAL":33,"TEXCOORD_0":34},"indices":30,"material":4}],"name":"pSphere2"},{"primitives":[{"attributes":{"POSITION":36,"TANGENT":37,"NORMAL":38,"TEXCOORD_0":39},"indices":35,"material":4}],"name":"pSphere3"},{"primitives":[{"attributes":{"POSITION":41,"TANGENT":42,"NORMAL":43,"TEXCOORD_0":44},"indices":40,"material":4}],"name":"pSphere4"}],"accessors":[{"bufferView":0,"componentType":5123,"count":6,"type":"SCALAR","name":"accessorIndices"},{"bufferView":1,"componentType":5126,"count":6,"max":[0.0749999955,0.149999991,-0.0749999955],"min":[-0.0749999955,0.0,-0.0749999955],"type":"VEC3","name":"accessorPositions"},{"bufferView":2,"componentType":5126,"count":6,"type":"VEC4","name":"accessorTangents"},{"bufferView":1,"byteOffset":72,"componentType":5126,"count":6,"type":"VEC3","name":"accessorNormals"},{"bufferView":3,"componentType":5126,"count":6,"type":"VEC2","name":"accessorUVs"},{"bufferView":0,"byteOffset":12,"componentType":5123,"count":6,"type":"SCALAR","name":"accessorIndices"},{"bufferView":1,"byteOffset":144,"componentType":5126,"count":6,"max":[-0.0749999955,0.149999991,0.0749999955],"min":[-0.0749999955,0.0,-0.0749999955],"type":"VEC3","name":"accessorPositions"},{"bufferView":2,"byteOffset":96,"componentType":5126,"count":6,"type":"VEC4","name":"accessorTangents"},{"bufferView":1,"byteOffset":216,"componentType":5126,"count":6,"type":"VEC3","name":"accessorNormals"},{"bufferView":3,"byteOffset":48,"componentType":5126,"count":6,"type":"VEC2","name":"accessorUVs"},{"bufferView":0,"byteOffset":24,"componentType":5123,"count":6,"type":"SCALAR","name":"accessorIndices"},{"bufferView":1,"byteOffset":288,"componentType":5126,"count":6,"max":[0.0749999955,0.149999991,0.0749999955],"min":[0.0749999955,0.0,-0.0749999955],"type":"VEC3","name":"accessorPositions"},{"bufferView":2,"byteOffset":192,"componentType":5126,"count":6,"type":"VEC4","name":"accessorTangents"},{"bufferView":1,"byteOffset":360,"componentType":5126,"count":6,"type":"VEC3","name":"accessorNormals"},{"bufferView":3,"byteOffset":96,"componentType":5126,"count":6,"type":"VEC2","name":"accessorUVs"},{"bufferView":0,"byteOffset":36,"componentType":5123,"count":6,"type":"SCALAR","name":"accessorIndices"},{"bufferView":1,"byteOffset":432,"componentType":5126,"count":6,"max":[0.0749999955,0.149999991,0.0749999955],"min":[-0.0749999955,0.149999991,-0.0749999955],"type":"VEC3","name":"accessorPositions"},{"bufferView":2,"byteOffset":288,"componentType":5126,"count":6,"type":"VEC4","name":"accessorTangents"},{"bufferView":1,"byteOffset":504,"componentType":5126,"count":6,"type":"VEC3","name":"accessorNormals"},{"bufferView":3,"byteOffset":144,"componentType":5126,"count":6,"type":"VEC2","name":"accessorUVs"},{"bufferView":0,"byteOffset":48,"componentType":5123,"count":6,"type":"SCALAR","name":"accessorIndices"},{"bufferView":1,"byteOffset":576,"componentType":5126,"count":6,"max":[0.0749999955,0.0,0.0749999955],"min":[-0.0749999955,0.0,-0.0749999955],"type":"VEC3","name":"accessorPositions"},{"bufferView":2,"byteOffset":384,"componentType":5126,"count":6,"type":"VEC4","name":"accessorTangents"},{"bufferView":1,"byteOffset":648,"componentType":5126,"count":6,"type":"VEC3","name":"accessorNormals"},{"bufferView":3,"byteOffset":192,"componentType":5126,"count":6,"type":"VEC2","name":"accessorUVs"},{"bufferView":0,"byteOffset":60,"componentType":5123,"count":6,"type":"SCALAR","name":"accessorIndices"},{"bufferView":1,"byteOffset":720,"componentType":5126,"count":6,"max":[0.0749999955,0.149999991,0.0749999955],"min":[-0.0749999955,0.0,0.0749999955],"type":"VEC3","name":"accessorPositions"},{"bufferView":2,"byteOffset":480,"componentType":5126,"count":6,"type":"VEC4","name":"accessorTangents"},{"bufferView":1,"byteOffset":792,"componentType":5126,"count":6,"type":"VEC3","name":"accessorNormals"},{"bufferView":3,"byteOffset":240,"componentType":5126,"count":6,"type":"VEC2","name":"accessorUVs"},{"bufferView":0,"byteOffset":72,"componentType":5123,"count":1260,"type":"SCALAR","name":"accessorIndices"},{"bufferView":1,"byteOffset":864,"componentType":5126,"count":1260,"max":[0.0163745172,0.08272237,0.0162848141],"min":[-0.0160166919,0.0497929454,-0.0162848122],"type":"VEC3","name":"accessorPositions"},{"bufferView":2,"byteOffset":576,"componentType":5126,"count":1260,"type":"VEC4","name":"accessorTangents"},{"bufferView":1,"byteOffset":15984,"componentType":5126,"count":1260,"type":"VEC3","name":"accessorNormals"},{"bufferView":3,"byteOffset":288,"componentType":5126,"count":1260,"type":"VEC2","name":"accessorUVs"},{"bufferView":0,"byteOffset":2592,"componentType":5123,"count":1260,"type":"SCALAR","name":"accessorIndices"},{"bufferView":1,"byteOffset":31104,"componentType":5126,"count":1260,"max":[0.0163745172,0.08272237,0.0162848141],"min":[-0.0160166919,0.0497929454,-0.0162848122],"type":"VEC3","name":"accessorPositions"},{"bufferView":2,"byteOffset":20736,"componentType":5126,"count":1260,"type":"VEC4","name":"accessorTangents"},{"bufferView":1,"byteOffset":46224,"componentType":5126,"count":1260,"type":"VEC3","name":"accessorNormals"},{"bufferView":3,"byteOffset":10368,"componentType":5126,"count":1260,"type":"VEC2","name":"accessorUVs"},{"bufferView":0,"byteOffset":5112,"componentType":5123,"count":1260,"type":"SCALAR","name":"accessorIndices"},{"bufferView":1,"byteOffset":61344,"componentType":5126,"count":1260,"max":[0.0163745172,0.08272237,0.0162848141],"min":[-0.0160166919,0.0497929454,-0.0162848122],"type":"VEC3","name":"accessorPositions"},{"bufferView":2,"byteOffset":40896,"componentType":5126,"count":1260,"type":"VEC4","name":"accessorTangents"},{"bufferView":1,"byteOffset":76464,"componentType":5126,"count":1260,"type":"VEC3","name":"accessorNormals"},{"bufferView":3,"byteOffset":20448,"componentType":5126,"count":1260,"type":"VEC2","name":"accessorUVs"}],"bufferViews":[{"buffer":0,"byteLength":7632,"name":"bufferViewScalar"},{"buffer":0,"byteOffset":7632,"byteLength":91584,"byteStride":12,"name":"bufferViewFloatVec3"},{"buffer":0,"byteOffset":99216,"byteLength":61056,"byteStride":16,"name":"bufferViewFloatVec4"},{"buffer":0,"byteOffset":160272,"byteLength":30528,"byteStride":8,"name":"bufferViewFloatVec2"}],"buffers":[{"uri":"CornellWithSphere.bin","byteLength":190800}],"materials":[{"pbrMetallicRoughness":{"baseColorFactor":[0.5,0.5,0.5,1.0],"metallicFactor":0.0,"roughnessFactor":0.450053632},"name":"BackWallMat"},{"pbrMetallicRoughness":{"baseColorFactor":[0.7339,0.0836,0.0836,1.0],"metallicFactor":0.0,"roughnessFactor":0.450053632},"name":"LeftWallMat"},{"pbrMetallicRoughness":{"baseColorFactor":[0.2173,0.5386,0.15,1.0],"metallicFactor":0.0,"roughnessFactor":0.450053632},"name":"RightWallMat"},{"pbrMetallicRoughness":{"baseColorFactor":[0.5,0.5,0.5,1.0],"metallicFactor":0.0,"roughnessFactor":0.450053632},"name":"TopWallMat"},{"pbrMetallicRoughness":{"baseColorFactor":[0.5,0.5,0.5,1.0],"metallicFactor":0.0,"roughnessFactor":0.450053632},"name":"BruhSphereMat"}]}