{"asset":{"version":"2.0","generator":"babylon.js glTF exporter for Autodesk MAYA 2022.5 v20240312.5"},"scene":0,"scenes":[{"nodes":[0]}],"nodes":[{"children":[1,2,3,4,5,6],"scale":[60.0,60.0,60.0],"name":"root"},{"mesh":0,"translation":[0.0,0.0749999955,-0.0749999955],"rotation":[0.707106769,0.0,0.0,0.707106769],"scale":[15.0,15.0,15.0],"name":"pPlane1"},{"mesh":1,"translation":[-0.0749999955,0.0749999955,0.0],"rotation":[0.5,0.5,-0.5,0.5],"scale":[15.0,15.0,15.0],"name":"pPlane3"},{"mesh":2,"translation":[0.0749999955,0.0749999955,0.0],"rotation":[0.5,-0.5,0.5,0.5],"scale":[15.0,15.0,15.0],"name":"pPlane4"},{"mesh":3,"translation":[0.0,0.149999991,0.0],"rotation":[1.0,0.0,0.0,6.123234E-17],"scale":[15.0,15.0,15.0],"name":"pPlane5"},{"mesh":4,"scale":[15.0,15.0,15.0],"name":"pPlane6"},{"mesh":5,"name":"pPlane7"}],"meshes":[{"primitives":[{"attributes":{"POSITION":1,"TANGENT":2,"NORMAL":3,"TEXCOORD_0":4},"indices":0,"material":0}],"name":"pPlane1"},{"primitives":[{"attributes":{"POSITION":6,"TANGENT":7,"NORMAL":8,"TEXCOORD_0":9},"indices":5,"material":1}],"name":"pPlane3"},{"primitives":[{"attributes":{"POSITION":11,"TANGENT":12,"NORMAL":13,"TEXCOORD_0":14},"indices":10,"material":2}],"name":"pPlane4"},{"primitives":[{"attributes":{"POSITION":16,"TANGENT":17,"NORMAL":18,"TEXCOORD_0":19},"indices":15,"material":3}],"name":"pPlane5"},{"primitives":[{"attributes":{"POSITION":21,"TANGENT":22,"NORMAL":23,"TEXCOORD_0":24},"indices":20,"material":3}],"name":"pPlane6"},{"primitives":[{"attributes":{"POSITION":26,"TANGENT":27,"NORMAL":28,"TEXCOORD_0":29},"indices":25,"material":4}],"name":"pPlane7"}],"accessors":[{"bufferView":0,"componentType":5123,"count":6,"type":"SCALAR","name":"accessorIndices"},{"bufferView":1,"componentType":5126,"count":6,"max":[0.005,0.0,0.005],"min":[-0.005,0.0,-0.005],"type":"VEC3","name":"accessorPositions"},{"bufferView":2,"componentType":5126,"count":6,"type":"VEC4","name":"accessorTangents"},{"bufferView":1,"byteOffset":72,"componentType":5126,"count":6,"type":"VEC3","name":"accessorNormals"},{"bufferView":3,"componentType":5126,"count":6,"type":"VEC2","name":"accessorUVs"},{"bufferView":0,"byteOffset":12,"componentType":5123,"count":6,"type":"SCALAR","name":"accessorIndices"},{"bufferView":1,"byteOffset":144,"componentType":5126,"count":6,"max":[0.005,0.0,0.005],"min":[-0.005,0.0,-0.005],"type":"VEC3","name":"accessorPositions"},{"bufferView":2,"byteOffset":96,"componentType":5126,"count":6,"type":"VEC4","name":"accessorTangents"},{"bufferView":1,"byteOffset":216,"componentType":5126,"count":6,"type":"VEC3","name":"accessorNormals"},{"bufferView":3,"byteOffset":48,"componentType":5126,"count":6,"type":"VEC2","name":"accessorUVs"},{"bufferView":0,"byteOffset":24,"componentType":5123,"count":6,"type":"SCALAR","name":"accessorIndices"},{"bufferView":1,"byteOffset":288,"componentType":5126,"count":6,"max":[0.005,0.0,0.005],"min":[-0.005,0.0,-0.005],"type":"VEC3","name":"accessorPositions"},{"bufferView":2,"byteOffset":192,"componentType":5126,"count":6,"type":"VEC4","name":"accessorTangents"},{"bufferView":1,"byteOffset":360,"componentType":5126,"count":6,"type":"VEC3","name":"accessorNormals"},{"bufferView":3,"byteOffset":96,"componentType":5126,"count":6,"type":"VEC2","name":"accessorUVs"},{"bufferView":0,"byteOffset":36,"componentType":5123,"count":6,"type":"SCALAR","name":"accessorIndices"},{"bufferView":1,"byteOffset":432,"componentType":5126,"count":6,"max":[0.005,0.0,0.005],"min":[-0.005,0.0,-0.005],"type":"VEC3","name":"accessorPositions"},{"bufferView":2,"byteOffset":288,"componentType":5126,"count":6,"type":"VEC4","name":"accessorTangents"},{"bufferView":1,"byteOffset":504,"componentType":5126,"count":6,"type":"VEC3","name":"accessorNormals"},{"bufferView":3,"byteOffset":144,"componentType":5126,"count":6,"type":"VEC2","name":"accessorUVs"},{"bufferView":0,"byteOffset":48,"componentType":5123,"count":6,"type":"SCALAR","name":"accessorIndices"},{"bufferView":1,"byteOffset":576,"componentType":5126,"count":6,"max":[0.005,0.0,0.005],"min":[-0.005,0.0,-0.005],"type":"VEC3","name":"accessorPositions"},{"bufferView":2,"byteOffset":384,"componentType":5126,"count":6,"type":"VEC4","name":"accessorTangents"},{"bufferView":1,"byteOffset":648,"componentType":5126,"count":6,"type":"VEC3","name":"accessorNormals"},{"bufferView":3,"byteOffset":192,"componentType":5126,"count":6,"type":"VEC2","name":"accessorUVs"},{"bufferView":0,"byteOffset":60,"componentType":5123,"count":600,"type":"SCALAR","name":"accessorIndices"},{"bufferView":1,"byteOffset":720,"componentType":5126,"count":600,"max":[0.03765691,0.124140352,0.019934725],"min":[-0.03765691,0.0389566422,-0.019934725],"type":"VEC3","name":"accessorPositions"},{"bufferView":2,"byteOffset":480,"componentType":5126,"count":600,"type":"VEC4","name":"accessorTangents"},{"bufferView":1,"byteOffset":7920,"componentType":5126,"count":600,"type":"VEC3","name":"accessorNormals"},{"bufferView":3,"byteOffset":240,"componentType":5126,"count":600,"type":"VEC2","name":"accessorUVs"}],"bufferViews":[{"buffer":0,"byteLength":1260,"name":"bufferViewScalar"},{"buffer":0,"byteOffset":1260,"byteLength":15120,"byteStride":12,"name":"bufferViewFloatVec3"},{"buffer":0,"byteOffset":16380,"byteLength":10080,"byteStride":16,"name":"bufferViewFloatVec4"},{"buffer":0,"byteOffset":26460,"byteLength":5040,"byteStride":8,"name":"bufferViewFloatVec2"}],"buffers":[{"uri":"CornellDiffTrans.bin","byteLength":31500}],"materials":[{"pbrMetallicRoughness":{"baseColorFactor":[0.5,0.5,0.5,1.0],"metallicFactor":0.0,"roughnessFactor":0.450053632},"name":"RegMat6"},{"pbrMetallicRoughness":{"baseColorFactor":[0.7339,0.0836,0.0836,1.0],"metallicFactor":0.0,"roughnessFactor":0.450053632},"name":"RegMat2"},{"pbrMetallicRoughness":{"baseColorFactor":[0.2173,0.5386,0.15,1.0],"metallicFactor":0.0,"roughnessFactor":0.450053632},"name":"RegMat3"},{"pbrMetallicRoughness":{"baseColorFactor":[0.5,0.5,0.5,1.0],"metallicFactor":0.0,"roughnessFactor":0.450053632},"name":"RegMat1"},{"pbrMetallicRoughness":{"baseColorTexture":{"index":0},"metallicFactor":0.0,"roughnessFactor":0.450053632},"name":"lambert2"}],"textures":[{"sampler":0,"source":0,"name":"chillguy.jpg"}],"images":[{"uri":"chillguy.jpg"}],"samplers":[{"magFilter":9729,"minFilter":9987}]}